<?xml version="1.0" encoding="utf-8"?>
<svg version="1.1" xmlns="http://www.w3.org/2000/svg" xmlns:xlink="http://www.w3.org/1999/xlink" x="0px" y="0px"
	 viewBox="0 0 128 128" style="enable-background:new 0 0 128 128;" xml:space="preserve">
<g>
	<path d="M117.5,0c1.33,0.56,2.77,0.95,3.96,1.72c3.82,2.46,5.4,7.07,4.08,11.38c-1.33,4.36-5.16,7.15-9.88,7.15
		c-30.63,0.01-61.26,0-91.9,0c-0.54,0-1.08,0-1.8,0c0,0.58,0,1.1,0,1.63c0,31.84,0,63.67,0,95.51c0,5.95-4.5,10.46-10.32,10.39
		c-5.4-0.07-9.87-4.49-9.93-9.89c-0.05-4.75-0.01-9.5-0.01-14.25c0-29.84-0.01-59.67,0.02-89.51c0-1.91,0.08-3.84,0.42-5.71
		c0.8-4.35,3.46-7.07,7.76-8.18C10.1,0.18,10.28,0.08,10.46,0C46.14,0,81.82,0,117.5,0z"/>
	<path d="M103.51,95.35c0.61,0.51,1.19,0.93,1.69,1.42c6.11,6.09,12.22,12.18,18.3,18.3c3.51,3.53,2.83,8.93-1.35,11.28
		c-2.81,1.58-6.08,1.13-8.49-1.25c-3.06-3.01-6.08-6.06-9.11-9.1c-3.65-3.65-7.33-7.28-10.94-10.98c-0.73-0.74-1.22-0.76-2.11-0.29
		c-23,11.96-50.79,1.65-60.13-22.29c-9.73-24.93,5.9-52.78,32.28-57.49c23.66-4.23,45.97,11.27,50,34.99
		c2.15,12.67-1.06,24.11-9.11,34.16C104.27,94.44,104,94.76,103.51,95.35z M71.4,96.52c16.36-0.02,29.6-13.32,29.58-29.7
		c-0.03-16.07-13.38-29.29-29.59-29.31C55.12,37.5,41.74,50.76,41.74,66.9C41.74,83.26,55.03,96.53,71.4,96.52z"/>
</g>
</svg>
